<svg width="51" height="50" viewBox="0 0 51 50" fill="none" xmlns="http://www.w3.org/2000/svg">
<g clip-path="url(#clip0_2017_149)">
<path d="M25.5 0C11.6937 0 0.5 11.1937 0.5 25C0.5 38.8063 11.6937 50 25.5 50C39.3063 50 50.5 38.8063 50.5 25C50.5 11.1937 39.3063 0 25.5 0ZM25.8437 9.54688C28.7641 9.54688 30.9953 11.7813 31.1672 14.3547C32.7125 14.0109 34.0844 13.8391 35.2875 14.5266C36.6609 15.2141 37.5172 16.9297 37.5172 19.1625V19.3328C39.5797 20.1922 41.125 22.0797 41.125 24.4844C41.125 27.7469 38.3781 30.3219 35.1156 30.3219C34.2562 30.3219 33.7422 29.9781 33.0563 29.8062V39.7672C33.0563 40.1109 32.7125 40.4547 32.3687 40.4547H18.6313C18.2875 40.4547 17.9437 40.1109 17.9437 39.7672V30.3219C17.2562 30.4937 16.5703 30.8375 15.8844 30.8375C12.45 30.8375 9.875 28.2625 9.875 25C9.86682 23.6633 10.3255 22.3657 11.1718 21.3311C12.0182 20.2965 13.1992 19.5897 14.5109 19.3328C13.9953 18.6453 13.6531 17.7891 13.6531 16.9313C13.6531 13.8406 16.2297 11.2641 19.3203 11.2641C20.3516 11.2641 21.0344 11.7781 21.7219 12.1219C22.5812 10.575 23.9563 9.71719 25.8453 9.54531L25.8437 9.54688Z" fill="black"/>
</g>
<defs>
<clipPath id="clip0_2017_149">
<rect width="50" height="50" fill="white" transform="translate(0.5)"/>
</clipPath>
</defs>
</svg>
